<?xml version="1.0" encoding="UTF-8"?>
<?xml-stylesheet type="text/css" href="../style/style.css" ?>
<svg id="logo" width="767.72" height="160.12" version="1.1" viewBox="0 0 767.72226 160.12195" xmlns="http://www.w3.org/2000/svg" xmlns:cc="http://creativecommons.org/ns#" xmlns:dc="http://purl.org/dc/elements/1.1/" xmlns:rdf="http://www.w3.org/1999/02/22-rdf-syntax-ns#">
<metadata>
<rdf:RDF>
<cc:Work rdf:about="">
<dc:format>image/svg+xml</dc:format>
<dc:type rdf:resource="http://purl.org/dc/dcmitype/StillImage"/>
<dc:title/>
</cc:Work>
</rdf:RDF>
</metadata>
<defs>
<marker id="a" overflow="visible" orient="auto">
<path transform="matrix(.8 0 0 .8 10 0)" d="m0 0 5-5-17.5 5 17.5 5z" fill="none"/>
</marker>
</defs>
<path transform="translate(-63.791 -48.031)" d="m314.69 159.47c-16.914-1.0314-34.983 0.70114-54.126 2.3482-19.143 1.647-39.521 3.221-57.59 4.2523s-33.811 1.5233-49.337 1.7309c-15.526 0.20758-30.448 0.12559-40.638-3.9174-10.19-4.043-15.553-12.046-17.816-22.649-2.2628-10.603-1.4255-23.804 2.2236-34.295 3.6491-10.491 10.109-18.271 16.539-24.418 6.4297-6.1467 12.829-10.66 17.307-13.371 4.4782-2.7103 7.0364-3.6181 9.1211-3.2943 2.0847 0.3238 3.6991 1.88 4.0721 3.245s-0.49616 2.5417-1.3645 3.7173c-2.8239 3.4758-5.6462 6.9497-7.2572 11.031-1.611 4.081-2.0076 8.7641 0.22892 11.643 2.2365 2.8791 7.1035 3.9516 12.029 1.2154s9.9096-9.2817 12.51-16.049c2.6002-6.7673 2.8181-13.757-1.1719-19.879-3.99-6.1215-12.188-11.375-21.749-12.146-9.5608-0.77093-20.485 2.9418-29.877 8.6643-9.3928 5.7225-17.254 13.455-24.28 23.758-7.0254 10.303-13.213 23.172-16.462 34.655s-3.5595 21.573-1.2904 31.64c2.2691 10.067 7.1167 20.106 12.095 27.31 4.9786 7.2036 10.101 11.582 16.207 14.553 6.1059 2.9703 13.202 4.538 20.091 4.3316 6.8893-0.20642 13.573-2.1868 26.525-4.4142 12.952-2.2274 32.18-4.7031 48.475-6.312s29.661-2.3514 43.027-3.094c11.056 0.24753 22.113 0.49508 31.519 2.104 9.4054 1.6089 17.162 4.5794 23.935 7.7429 6.7729 3.1635 12.369 6.4075 16.576 9.4188 4.2077 3.0114 6.9306 5.7343 9.6534 8.4571 8.0689-8.0652 16.139-16.131 24.348-22.69 8.2091-6.559 16.559-11.612 24.909-16.666-15.759-3.7954-31.517-7.5906-48.432-8.622z" stroke-width="1px"/>
<path transform="translate(-63.791 -48.031)" d="m313.86 207.45c8.0699-8.0662 16.139-16.131 24.348-22.69 8.2091-6.559 16.56-11.613 24.909-16.666-15.758-3.7952-31.517-7.5906-48.432-8.622s-34.983 0.70114-54.126 2.3482c-19.143 1.647-39.521 3.221-57.59 4.2523s-33.811 1.5233-49.337 1.7309c-15.526 0.20758-30.448 0.12559-40.638-3.9174-10.19-4.043-15.553-12.046-17.816-22.649-2.2628-10.603-1.4255-23.804 2.2236-34.295 3.6491-10.491 10.109-18.271 16.539-24.418 6.4297-6.1467 12.829-10.66 17.307-13.371 4.4782-2.7103 7.0364-3.6181 9.1211-3.2943 2.0847 0.3238 3.6991 1.88 4.2357 3.1583 0.53661 1.2783-5e-3 2.2818-0.54601 3.284-3.1512 3.6491-6.3008 7.2963-8.0756 11.464-1.7748 4.1676-2.1713 8.8508 0.0652 11.73 2.2365 2.8791 7.1035 3.9516 12.029 1.2154s9.9096-9.2817 12.51-16.049c2.6002-6.7673 2.8181-13.757-1.1719-19.879-3.99-6.1215-12.188-11.375-21.749-12.146-9.5608-0.77093-20.485 2.9418-29.877 8.6643-9.3928 5.7225-17.254 13.455-24.28 23.758-7.0254 10.303-13.213 23.172-16.462 34.655s-3.5595 21.573-1.2904 31.64c2.2691 10.067 7.1167 20.106 12.095 27.31 4.9786 7.2036 10.101 11.582 16.207 14.553 6.1059 2.9703 13.202 4.538 20.091 4.3316 6.8893-0.20642 13.573-2.1868 26.525-4.4142 12.952-2.2274 32.18-4.7031 48.475-6.312s29.661-2.3514 43.027-3.094c11.056 0.24753 22.113 0.49508 31.519 2.104 9.4054 1.6089 17.162 4.5794 23.935 7.7429 6.7729 3.1635 12.369 6.4075 16.576 9.4189 4.2077 3.0114 6.9306 5.7343 9.6534 8.4571" fill="none" marker-start="url(#a)"/>
<path transform="translate(-63.791 -48.031)" d="m314.69 159.47c-16.914-1.0314-34.983 0.70114-54.126 2.3482-19.143 1.647-39.521 3.221-57.59 4.2523s-33.811 1.5233-49.337 1.7309c-15.526 0.20758-30.448 0.12559-40.638-3.9174-10.19-4.043-15.553-12.046-17.816-22.649-2.2628-10.603-1.4255-23.804 2.2236-34.295 3.6491-10.491 10.109-18.271 16.539-24.418 6.4297-6.1467 12.829-10.66 17.307-13.371 4.4782-2.7103 7.0364-3.6181 9.1211-3.2943 2.0847 0.3238 3.6991 1.88 4.0721 3.245s-0.49616 2.5417-1.3645 3.7173c-2.8239 3.4758-5.6462 6.9497-7.2572 11.031-1.611 4.081-2.0076 8.7641 0.22892 11.643 2.2365 2.8791 7.1035 3.9516 12.029 1.2154s9.9096-9.2817 12.51-16.049c2.6002-6.7673 2.8181-13.757-1.1719-19.879-3.99-6.1215-12.188-11.375-21.749-12.146-9.5608-0.77093-20.485 2.9418-29.877 8.6643-9.3928 5.7225-17.254 13.455-24.28 23.758-7.0254 10.303-13.213 23.172-16.462 34.655s-3.5595 21.573-1.2904 31.64c2.2691 10.067 7.1167 20.106 12.095 27.31 4.9786 7.2036 10.101 11.582 16.207 14.553 6.1059 2.9703 13.202 4.538 20.091 4.3316 6.8893-0.20642 13.573-2.1868 26.525-4.4142 12.952-2.2274 32.18-4.7031 48.475-6.312s29.661-2.3514 43.027-3.094c11.056 0.24753 22.113 0.49508 31.519 2.104 9.4054 1.6089 17.162 4.5794 23.935 7.7429 6.7729 3.1635 12.369 6.4075 16.576 9.4188 4.2077 3.0114 6.9306 5.7343 9.6534 8.4571 8.0689-8.0652 16.139-16.131 24.348-22.69 8.2091-6.559 16.559-11.612 24.909-16.666-15.759-3.7954-31.517-7.5906-48.432-8.622z" stroke-width="1px"/>
<path d="m301.01 3.1432c-3.329 0.15993-6.7939 1.4908-9.5293 3.4648-3.1261 2.256-5.9566 6.287-6.2422 7.998s2.2674 5.081 2.3711 6.2422c0.10372 1.1612-1.267 6.9932-4.5293 8.6523s-8.921 1.2782-12.943 1.4141c-4.0224 0.13584-6.4014 0.78364-7.8223 2.4707-1.4208 1.6871-1.8562 4.4072-0.25195 6.7461 1.6042 2.3389 6.9994 5.2362 7.1973 7.1699 0.19782 1.9338-4.1002 10.123-6.9531 16.098-2.853 5.975-5.7632 12.62-8.373 17.215-2.6099 4.5949-4.9479 7.2058-7.4766 8.1309s-5.2465 0.16275-6.498-1.334c-1.2516-1.4967-1.034-3.7235 0.32617-6.7695 1.3602-3.046 3.8591-6.9043 6.6602-10.086 2.801-3.1816 5.9264-5.7035 8.1973-8.4395 2.2709-2.736 3.7381-5.7268 4.0098-8.1465 0.27165-2.4197-0.61979-4.2026-2.8652-6.0293-2.2454-1.8267-5.7789-3.5667-9.748-3.3496-3.9691 0.21711-8.3766 2.3924-11.502 4.2676-3.1254 1.8752-5.269 3.7037-7.0996 2.6289-1.8307-1.0748-4.729-5.865-7.7461-8.0938-3.0171-2.2288-6.4988-2.549-9.9238-1.0566-3.4251 1.4924-6.6879 4.8084-8.5371 7.5-1.8492 2.6916-2.2834 4.7593-2.3379 7.7227-0.0545 2.9634 0.27259 6.8256-1.4121 11.256s-5.384 9.4331-7.9941 13.104c-2.6102 3.6704-4.134 6.0109-6.3086 7.2617-2.1746 1.2508-5.0024 1.4132-6.9062 0.92383-1.9039-0.4894-2.882-1.6315-2.7188-3.5898 0.16324-1.9584 1.4679-4.7295 3.3984-8.7266s4.4851-9.217 7.1504-12.834c2.6653-3.617 5.4742-5.6536 7.4414-8.1426s3.1634-5.4794 3-8.334c-0.1634-2.8545-1.6993-5.5961-4.1934-6.9434-2.494-1.3473-5.9758-1.3476-9.5098 0.2832-3.534 1.6308-7.094 4.8667-8.4414 7.4902s-0.42198 4.5814-0.42188 7.082c1e-4 2.5006-0.92548 5.5462-2.8828 9.8145-1.9573 4.2682-4.9469 9.7608-8.9434 14.084s-9.0001 7.4765-12.236 8.2109c-3.2362 0.73446-4.7027-0.94996-4.6211-3.2891 0.0816-2.3391 1.7125-5.3287 4.4316-9.9512 2.7191-4.6224 6.5252-10.877 9.2715-14.166 2.7463-3.2894 4.4315-3.6146 5.791-4.9746 1.3595-1.36 2.3909-3.7516 2.3906-5.6816-2.6e-4 -1.93-1.0589-3.4346-3.5742-4.8027-2.5153-1.3681-6.5394-2.6738-10.182-3-3.6423-0.32625-6.9591 0.33557-9.7871 1.6621-2.828 1.3265-5.2759 3.3403-8.1035 3.8301s-6.036-0.54388-7.9668-1.4141c-1.9308-0.87019-2.528-1.5195-4.2949-2.5547s-4.595-2.3394-7.748-2.6113-6.6752 0.49701-10.814 2.8848c-4.1392 2.3878-8.98 6.4135-13.629 11.361-4.6489 4.9478-9.1086 10.821-12.344 16.584-3.2352 5.7633-5.2478 11.421-5.5742 16.396-0.32643 4.9754 1.0336 9.2701 4.2422 12.561 3.2086 3.2904 8.2645 5.5743 13.051 5.9277 4.7862 0.35344 9.2978-1.2244 13.295-4.0254 3.9972-2.801 7.4767-6.8234 10.902-11.473 3.4257-4.6493 6.7964-9.9232 9.1348-15.062 2.3384-5.1393 3.643-10.14 5.7109-13.322 2.068-3.1826 4.8936-4.5402 7.0137-4.3496 2.1201 0.19056 3.534 1.9297 3.7246 3.8867s-0.84236 4.1339-2.9355 7.0156c-2.0932 2.8817-5.248 6.4707-7.5586 9.7598-2.3106 3.289-3.7792 6.2808-4.459 9.2168s-0.57153 5.8194 0.57031 9.1094c1.1418 3.29 3.3158 6.986 6.416 9.0801 3.1002 2.0941 7.1235 2.5828 11.42 0.92383 4.2964-1.6589 10.311-6.6697 12.094-6.9668s2.6424 3.5693 4.8184 5.5547 5.8721 3.0186 9.1348 2.8008c3.2626-0.21778 6.0923-1.6866 8.1309-3.8613 2.0386-2.1748 3.5898-5.7498 4.6641-5.4394 1.0743 0.31036 3.0288 4.8957 5.4766 6.8535s5.7642 2.1741 9.168 1.3965 6.9817-2.5939 9.5098-4.6602 4.0517-4.405 4.7598-6.4981c0.70807-2.093 0.59701-4.0513 0.16211-5.7363s-1.197-3.1551-1.2324-4.8711c-0.0355-1.716 0.6882-3.7769 2.1016-6.2774 1.4134-2.5004 3.5356-5.4914 5.4258-8.1914 1.8902-2.7 3.6008-5.1862 5.5527-6.9902 1.9519-1.8041 4.3022-3.0347 6.5039-3.9316s4.3237-1.495 5.791-1.332 2.2847 1.0884 1.8438 3.1113c-0.44093 2.0229-2.1151 5.0995-4.5898 9.0156s-5.7359 8.6455-7.7754 12.289c-2.0394 3.6435-2.8539 6.1978-2.582 8.8633s1.6307 5.4367 3.752 7.4219c2.1213 1.9852 5.0013 3.1811 8.3184 3.0449 3.317-0.13615 7.0706-1.6046 10.441-3.4805 3.3708-1.8758 6.3631-4.1587 8.6738-5.5449 2.3108-1.3863 3.9426-1.8769 5.7363-0.49023 1.7938 1.3866 3.7511 4.6497 6.7207 6.6309 2.9696 1.9812 7.0372 2.6963 10.789 2.5059s7.2328-1.2792 9.625-2.6387c2.3922-1.3595 3.6963-2.9904 4.8652-3.9688 1.1689-0.97832 2.2037-1.3057 2.8828 0.18945s1.0052 4.8112 3.127 6.3613c2.1217 1.5501 6.0352 1.3331 9.2031 0.36328 3.1679-0.9698 5.6417-2.7281 7.1094-4.6582 1.4676-1.9301 1.958-4.0519 1.7402-5.873-0.21774-1.8212-1.1435-3.3441-0.89844-5.5469 0.24508-2.2027 1.6586-5.0836 3.3867-8.3789 1.7281-3.2952 3.8192-7.0922 5.9941-10.164 2.1749-3.0718 4.4598-5.465 6.6074-7.123s4.1605-2.5831 6.3887-2.1211c2.2282 0.46199 4.6763 2.3122 5.7363 4.707 1.06 2.3949 0.73486 5.3264-0.60352 8.5312-1.3384 3.2048-3.7722 6.8005-4.6426 10.662-0.87037 3.8616-0.21783 8.0462 1.168 11.283s3.3995 5.4097 5.7109 6.7148c2.3115 1.3051 4.8666 1.6862 7.4492 1.4414 2.5827-0.24482 5.1937-1.114 6.8789-1.5195 1.6852-0.40553 2.3384-0.35632 2.6914 1.1113 0.35299 1.4676 0.35301 4.3502-1.3594 7.5313-1.7124 3.181-5.1394 6.6606-9.3535 8.8633-4.2142 2.2027-9.2163 3.127-14.191 3.4805-4.9751 0.35349-9.9246 0.13578-14.547-1.3867-4.6223-1.5225-8.919-4.3501-13.215-7.1777 2.1207 4.3502 4.2423 8.7012 9.1094 12.889s12.52 8.2314 19.678 9.5254c7.1576 1.294 13.899-0.11913 18.875-2.6211s8.1845-6.0898 12.127-12.289 8.6177-15.008 15.252-26.02c6.6343-11.012 15.225-24.222 20.609-32.951 5.3845-8.7294 7.5598-12.97 7.7226-16.178s-1.6884-5.3835-3.7812-6.7969c-2.0929-1.4134-4.4446-2.0697-7.0742-1.334-2.6296 0.73568-5.5677 2.8567-7.7422 5.0039-2.1745 2.1472-3.59 4.3226-4.3242 6.7148-0.73418 2.3922-0.78812 5.0584-1.4941 7.6406-0.70603 2.5822-2.0664 5.1926-4.7578 9.4609-2.6915 4.2684-6.7147 10.195-10.766 13.703s-8.0756 4.5803-10.822 4.207c-2.7467-0.37331-4.1052-2.2193-4.377-4.3418-0.27177-2.1224 0.54397-4.514 3.2363-8.8105s7.2577-10.493 10.875-15.389c3.6173-4.8956 6.2794-8.4828 6.9316-11.256s-0.68127-4.6932-2.7852-6.1328c-2.1039-1.4396-4.8269-2.2947-7.9805-1.9688-3.1536 0.3259-6.6891 1.8493-8.3203 3.752-1.6312 1.9027-1.3606 4.1863-2.1758 6.3613-0.81512 2.175-2.7176 4.241-4.377 3.7246s-3.0995-3.6741-5.4238-5.3574-5.5858-2.01-8.6309-1.1133-5.8737 3.0189-8.457 3.3457c-2.5833 0.32677-4.9204-1.1426-7.3398-1.8496-2.4194-0.707-4.9234-0.6527-7.5059 0.57031-2.5824 1.223-5.247 3.6165-7.1504 5.873-1.9034 2.2565-3.0449 4.3771-2.7461 6.2266 0.29878 1.8494 2.0401 3.4267 1.6055 6.2266-0.43467 2.7998-3.046 6.8239-5.873 10.439-2.8271 3.6155-5.8724 6.8236-9.8691 8.5098-3.9967 1.6862-8.9443 1.85-11.365-0.32618-2.4209-2.1761-2.3118-6.6872 0-12.289s6.8235-12.289 10.113-17.455c3.2898-5.1658 6.5362-10.889 7.6211-11.693 1.085-0.80425 5.7828-0.97508 9.5352-1.0566 3.7523-0.08156 8.262-0.13701 10.955-0.98047 2.6931-0.84346 3.5645-2.4732 3.8906-3.9961 0.32614-1.5229 0.0991-2.9904-1.5547-3.6973-1.6538-0.70689-4.7566-0.7614-7.6914-0.70703-2.9348 0.05436-5.7096 0.21855-6.3613-0.95117-0.65176-1.1697 0.81533-3.6712 2.7461-6.3633 1.9308-2.6921 4.3242-5.5728 5.3301-8.4551 1.0058-2.8823 0.62365-5.7642-1.2793-8.1289-1.903-2.3647-5.3521-4.2261-9.0918-4.4375-0.46747-0.026427-0.94045-0.028707-1.416-0.00586zm-192.18 56.801c1.2856-0.02296 2.1866 0.81678 2.3789 2.877 0.1923 2.0602-0.32447 5.3428-2.1699 9.1367-1.8454 3.794-5.0202 8.0992-8.084 10.824-3.0638 2.7251-6.0167 3.87-7.6133 2.9043-1.5966-0.96571-1.8344-4.0404-0.48633-7.7422 1.3481-3.7018 4.2801-8.0268 6.4355-10.832 2.1555-2.8052 3.5332-4.0887 5.0586-5.1738s3.1949-1.9712 4.4805-1.9941z" stroke-width="1px"/>
<path transform="translate(-63.791 -48.031)" d="m757.11 132.72c-2.1128 1.8443-3.2523 3.1179-4.1586 5.131-0.90625 2.0131-1.5766 4.7614-1.5431 7.0761 0.0335 2.3147 0.77087 4.1917 2.3816 4.6275 1.6107 0.43582 4.0916-0.56993 6.6399-3.3872 2.5484-2.8173 5.164-7.445 6.7735-11s2.2131-6.0362 1.7442-7.3769c-0.46886-1.3407-2.0121-1.542-4.3267-0.43516-2.3146 1.1068-5.3981 3.52-7.5108 5.3643zm-106.07-1.7103c-1.0062 0.80469-1.2744 1.14-2.5861 2.6199-1.3116 1.4798-3.6514 4.087-5.0603 6.8709-1.4089 2.7839-1.8782 5.7338-1.5093 8.082s1.5757 4.0913 3.3874 4.1916c1.8117 0.10024 4.2259-1.4422 6.9747-5.3309 2.7488-3.8887 5.8355-10.129 7.2771-14.086 1.4417-3.9568 1.2404-5.6338 0.30253-6.2038s-2.6155-0.0331-4.3264 0.87251c-1.7109 0.90567-3.4535 2.1791-4.4596 2.9838zm102.06 42.39c-3.6663 1.4743-6.9519 0.40148-9.87-1.7116-2.9181-2.1131-5.4662-5.2648-7.2771-7.5116-1.8108-2.2468-2.884-3.5882-4.426-3.1864-1.542 0.40187-3.5542 2.5483-5.7345 4.9298s-4.5266 4.996-7.8201 6.9197c-3.2935 1.9236-7.3703 3.1072-11.093 3.3086-3.723 0.20136-7.0085-0.60325-9.3901-3.0185s-4.7085-8.7614-6.1256-8.4356c-1.4171 0.32585-9.6682 9.1059-14.262 12.393s-8.5502 4.2925-12.073 3.689c-3.5225-0.60356-6.6065-2.8159-9.1556-5.4657-2.5492-2.6498-5.8687-7.7398-6.8424-7.7049-0.97369 0.0349-6.8741 5.49-10.679 7.2179-3.8052 1.7279-7.8964 1.9291-11.988-0.21709-4.0918-2.1462-11.034-9.7711-12.07-10.087-1.0364-0.31561-5.7029 3.7818-10.431 6.8669-4.7281 3.0851-11.436 6.8418-17.003 8.552-5.5662 1.7102-9.9926 1.3749-13.347-0.53672-3.3541-1.9116-5.6335-5.3979-6.3378-8.6189-0.70425-3.221 0.16717-6.1704 2.7831-11.067 2.616-4.8963 6.9748-11.736 11.435-19.752 4.4607-8.016 12.495-24.203 12-24.426s-15.856 12.656-22.898 19.262c-7.0423 6.6062-12.409 12.51-17.271 15.528-4.8618 3.0179-9.2217 3.1521-13.28 2.1797-4.0579-0.97239-8.3602-3.3541-9.6533-6.2278s-0.58418-7.3877-0.38749-13.292c0.19669-5.9042-0.12892-10.377-0.5231-15.792-4.2244 5.0291-8.4505 10.06-12.975 16.232-4.5245 6.1723-12.939 18.932-13.166 20.185s5.0981 5.57 5.3978 8.8929-2.1968 7.567-5.8276 11.157c-3.6308 3.5898-8.4149 6.5592-13.49 6.9307s-10.437-1.8557-13.779-4.3726-4.662-5.322-3.053-11.015c1.609-5.6928 6.1476-14.275 14.439-26.403s20.339-27.806 26.403-36.305c6.064-8.4983 6.1465-9.8185 4.5793-10.478s-4.785-0.65954-6.3944-1.8155-1.6094-3.4655-0.28954-7.1773 3.9613-8.8296 8.6225-13.161c4.6612-4.331 11.346-7.8797 17.415-8.6355s11.67 1.3342 16.396 4.6551c4.7262 3.3208 8.722 7.9825 10.125 11.736 1.4029 3.7536 0.24837 6.6399-2.5995 13.161-2.8479 6.5213-7.3836 16.665-10.684 24.957-3.3005 8.2924-5.363 14.727-6.2296 19.183-0.86655 4.4558-0.43325 7.7056 2.4012 6.2603 2.8344-1.4453 13.235-10.221 17.195-13.562 3.9599-3.3411 28.96-28.341 28.34-29.001-0.61962-0.65973-1.8585-1.9788-2.437-4.4956-0.5785-2.5168-0.49606-6.2268 1.2371-10.024 1.7331-3.7968 5.1155-7.6741 11.056-11.016s14.438-6.1463 20.214-6.8888c5.7758-0.74249 8.8285 0.5776 12.51 2.8825s7.9922 5.5945 10.261 8.5231c2.2688 2.9285 2.5052 5.5994-0.8918 11.329-3.397 5.7295-10.411 14.724-18.084 25.119-7.6729 10.396-16.009 22.199-21.082 29.581-5.0726 7.3821-6.8875 10.352-5.9388 12.415s4.6597 3.2182 7.7136 2.9704 6.8513-2.8666 7.5449-4.1247c0.69362-1.2581 2.231-8.3078 6.1352-15.155 3.9043-6.8476 10.747-16.106 17.521-22.711s13.481-10.563 18.88-12.34c5.3986-1.777 9.4905-1.3745 12.608 0.0671 3.118 1.4416 6.5523 5.4125 7.6798 5.4524 1.1275 0.0399 6.7075-3.6085 9.6469-3.9281 2.9394-0.31953 5.2421 1.2594 6.8515 3.1034 1.6094 1.844 2.4814 3.9233 1.5426 6.9416-0.93879 3.0182-3.688 6.9744-7.2433 12.341-3.5553 5.3665-7.9136 12.139-10.328 16.666-2.4148 4.5274-2.8842 6.8073-2.3809 8.552 0.50333 1.7447 1.9781 2.9514 4.4533 3.1874 2.4752 0.23604 5.9766-0.50465 11.408-7.2099 5.4311-6.7053 12.811-19.386 16.533-26.429 3.7221-7.0437 3.789-8.4491 2.9435-9.6411-0.84548-1.192-2.7089-2.2273-3.4802-3.2676s-0.50306-2.1133 1.3734-3.688c1.8765-1.5748 5.3679-3.6562 8.9218-4.7289 3.554-1.0728 7.1769-1.1398 10.516-0.3428 3.3386 0.79706 6.4528 2.4895 8.1293 4.4004 1.6765 1.9108 1.9448 4.0573 0.87171 6.5728-1.0731 2.5156-3.4866 5.3984-7.3106 11.369-3.824 5.9708-9.0535 15.022-11.636 20.723s-2.5154 8.0482-1.1396 9.558c1.3758 1.5098 4.0575 2.1802 6.1783 1.8908 2.1208-0.28939 4.6822-2.3413 5.1314-3.6951s2.0252-11.758 4.8099-17.904c2.7847-6.146 7.395-12.108 12.073-16.822s9.4205-8.178 14.145-10.323 9.4265-2.9701 13.799-2.3098c4.3726 0.66026 10.533 3.9289 12.635 2.7296s12.441-16.706 13.01-18.34-2.1309-4.6037-1.1817-6.8734 4.6002-5.0716 9.2929-7.7546c4.6927-2.683 10.633-5.4059 14.882-5.2818 4.2485 0.12403 6.8484 3.1433 8.2299 5.3462s1.6291 3.6885 0.47447 6.0809c-1.1547 2.3923-3.7126 5.6929-11.675 16.336-7.962 10.643-21.363 28.676-28.565 39.256-7.2025 10.579-8.2751 13.797-7.6977 16.397s2.8044 4.5793 5.8632 4.4656c3.0588-0.11371 6.9468-2.3212 12.062-7.2085 5.1154-4.8873 11.457-12.453 17.8-20.019-2.8053 6.9688-5.6105 13.938-9.5705 20.763-3.96 6.8255-9.0764 13.51-15.099 17.676s-12.953 5.8166-17.863 4.5791c-4.9101-1.2376-9.8585-8.3068-10.851-8.3222-0.99225-0.0154-7.9238 6.8747-11.59 8.349z" stroke-width="1px"/>
<path transform="translate(-63.791 -48.031)" d="m743.03 74.483c-3.3415 0.28872-7.2185 0.78366-10.025 2.3512-2.8061 1.5675-4.5384 4.2072-4.8518 6.5919-0.31343 2.3847 0.72501 4.3817 3.864 6.1046s8.4956 3.1457 12.745 3.0216c4.2492-0.12405 7.4675-1.7744 9.4058-4.2081s2.5987-5.6527 2.021-8.1686c-0.57768-2.5159-2.3929-4.3311-4.7026-5.1975-2.3098-0.86635-5.1149-0.78384-8.4565-0.49512z" stroke-width="1px"/>
</svg>
